<?xml version="1.0" encoding="utf-8"?>
<!-- Generator: Adobe Illustrator 26.0.0, SVG Export Plug-In . SVG Version: 6.00 Build 0)  -->
<svg version="1.1" xmlns="http://www.w3.org/2000/svg" xmlns:xlink="http://www.w3.org/1999/xlink" x="0px" y="0px" width="255.1px"
	 height="368.5px" viewBox="0 0 255.1 368.5" style="enable-background:new 0 0 255.1 368.5;" xml:space="preserve">
<style type="text/css">
	.st0{display:none;}
	.st1{display:inline;}
	.st2{display:inline;fill:#B4FFE0;}
	.st3{display:inline;fill:#B899FF;}
	.st4{display:inline;fill:#25333B;}
	.st5{fill:#25333B;}
	.st6{display:inline;fill:#FFFFFF;}
	.st7{fill:#94E5AB;}
	.st8{opacity:0.46;fill:#94E5AB;}
	.st9{fill:#B4FFE0;}
	.st10{fill:#B899FF;}
	.st11{fill:#455A64;}
	.st12{display:inline;fill:#455A64;}
	.st13{display:inline;fill:#25333B;stroke:#4E878C;stroke-width:9;}
	.st14{display:inline;fill:#B4FFE0;stroke:#4E878C;stroke-width:9;}
	.st15{display:inline;fill:#FFFFFF;filter:url(#Adobe_OpacityMaskFilter);}
	
		.st16{display:inline;mask:url(#path-4-inside-1_5_6_00000148649528262235525670000005897882449095094962_);fill:#B4FFE0;stroke:#4E878C;stroke-width:18;}
	.st17{display:inline;fill:#FFFFFF;filter:url(#Adobe_OpacityMaskFilter_00000089555436558214505850000009765061964058663096_);}
	
		.st18{display:inline;mask:url(#path-5-inside-2_5_6_00000050637417948350741190000008904054285621248925_);fill:#B4FFE0;stroke:#4E878C;stroke-width:18;}
	.st19{display:inline;fill:#FFFFFF;filter:url(#Adobe_OpacityMaskFilter_00000155851158117067306870000001599346445531171496_);}
	
		.st20{display:inline;mask:url(#path-6-inside-3_5_6_00000183970611318821715120000003762878840602127286_);fill:#B4FFE0;stroke:#4E878C;stroke-width:18;}
	.st21{display:inline;fill:#B899FF;stroke:#4E878C;stroke-width:9;}
	.st22{display:inline;fill:none;stroke:#B4FFE0;stroke-width:20;}
	.st23{display:inline;fill:none;stroke:#4E878C;stroke-width:9;}
	.st24{display:inline;fill:#E5E5E5;stroke:#767676;stroke-width:9;}
	.st25{display:inline;fill:#FFFFFF;filter:url(#Adobe_OpacityMaskFilter_00000084511608898221075750000007688251145176921495_);}
	
		.st26{display:inline;mask:url(#path-4-inside-1_5_6_00000124143772594532490810000014602182733662636208_);fill:#E5E5E5;stroke:#767676;stroke-width:18;}
	.st27{display:inline;fill:#FFFFFF;filter:url(#Adobe_OpacityMaskFilter_00000096031077986360389770000013136399609002242487_);}
	
		.st28{display:inline;mask:url(#path-5-inside-2_5_6_00000059267965679104186640000001785550261766695852_);fill:#E5E5E5;stroke:#767676;stroke-width:18;}
	.st29{display:inline;fill:#FFFFFF;filter:url(#Adobe_OpacityMaskFilter_00000154423152151714538410000004059923788193529999_);}
	
		.st30{display:inline;mask:url(#path-6-inside-3_5_6_00000114791626518002228390000011821192389487476105_);fill:#E5E5E5;stroke:#767676;stroke-width:18;}
	.st31{display:inline;fill:#AEAEAE;stroke:#767676;stroke-width:9;}
	.st32{display:inline;fill:none;stroke:#E5E5E5;stroke-width:20;}
	.st33{display:inline;fill:none;stroke:#767676;stroke-width:9;}
	.st34{display:inline;fill:none;stroke:#4E878C;stroke-width:9;stroke-linecap:round;}
	.st35{display:inline;fill:#E5E5E5;}
	.st36{display:inline;fill:none;stroke:#767676;stroke-width:9;stroke-linecap:round;}
	.st37{fill:#FFFFFF;}
	.st38{fill:#303030;}
	.st39{fill:#E5E5E5;}
	.st40{fill:#AEAEAE;}
</style>
<g id="background" class="st0">
	<rect x="-123.5" y="-57.1" class="st1" width="989.4" height="666.1"/>
</g>
<g id="conn4" class="st0">
	<ellipse class="st2" cx="178.4" cy="371.7" rx="37.1" ry="36.1"/>
	<ellipse class="st2" cx="180.9" cy="301.9" rx="37.1" ry="36.1"/>
	<ellipse class="st3" cx="180.8" cy="144.1" rx="30.2" ry="29.4"/>
	<ellipse class="st3" cx="181.3" cy="440.1" rx="37.1" ry="36.1"/>
	<ellipse class="st2" cx="265.6" cy="372.8" rx="37.1" ry="36.1"/>
	<ellipse class="st3" cx="264.9" cy="306.1" rx="37.1" ry="36.1"/>
	<ellipse class="st2" cx="268.3" cy="443.6" rx="37.1" ry="36.1"/>
	<ellipse class="st3" cx="347.5" cy="376.2" rx="37.1" ry="36.1"/>
	<ellipse class="st2" cx="352.3" cy="444.3" rx="37.1" ry="36.1"/>
	<ellipse class="st3" cx="437" cy="442.9" rx="37.1" ry="36.1"/>
	<path class="st4" d="M666.4,268.7c0-46.2-4.9-102-5.4-163c-0.6-68.7-4.2-59.7-60.1-57.8c-55.9,1.9-168.8,2.6-242.1,0
		c-73.3-2.6-184.4-3.9-272.7-2.6C26,44.1,31.4,43.4,32,99.3c0.3,31.7,3,98.7,4.2,159.1c1.2,62.2-1.8,81.5,1.2,155.3
		c3,73.8-13.8,78.9,49.3,77.6c63.1-1.3,196.4-0.1,263.1-2.6c68.5-2.6,192.8-1.4,252.3,1.9c57.7,3.2,64.9,7.7,63.7-46.8
		C664.6,389.3,666.4,314.9,666.4,268.7z M96.4,468.8c-16.6,0-30.1-12.4-30.1-27.7s13.5-27.7,30.1-27.7s30.1,12.4,30.1,27.7
		S113,468.8,96.4,468.8z M96.4,402.2c-16.6,0-30.1-12.4-30.1-27.7c0-15.3,13.5-27.7,30.1-27.7s30.1,12.4,30.1,27.7
		C126.5,389.8,113,402.2,96.4,402.2z M96.4,330.9c-16.6,0-30.1-12.4-30.1-27.7c0-15.3,13.5-27.7,30.1-27.7s30.1,12.4,30.1,27.7
		C126.5,318.5,113,330.9,96.4,330.9z M96.4,261.9c-16.6,0-30.1-12.4-30.1-27.7s13.5-27.7,30.1-27.7s30.1,12.4,30.1,27.7
		S113,261.9,96.4,261.9z M96.4,195.3c-16.6,0-30.1-12.4-30.1-27.7c0-15.3,13.5-27.7,30.1-27.7s30.1,12.4,30.1,27.7
		C126.5,182.9,113,195.3,96.4,195.3z M96.4,127.4c-16.6,0-30.1-12.4-30.1-27.7s13.5-27.7,30.1-27.7s30.1,12.4,30.1,27.7
		S113,127.4,96.4,127.4z M180.2,469.2c-16.6,0-30.1-12.4-30.1-27.7c0-15.3,13.5-27.7,30.1-27.7c16.6,0,30.1,12.4,30.1,27.7
		C210.3,456.8,196.8,469.2,180.2,469.2z M180.2,402.5c-16.6,0-30.1-12.4-30.1-27.7c0-15.3,13.5-27.7,30.1-27.7
		c16.6,0,30.1,12.4,30.1,27.7C210.3,390.1,196.8,402.5,180.2,402.5z M180.2,331.2c-16.6,0-30.1-12.4-30.1-27.7s13.5-27.7,30.1-27.7
		c16.6,0,30.1,12.4,30.1,27.7S196.8,331.2,180.2,331.2z M180.2,262.3c-16.6,0-30.1-12.4-30.1-27.7c0-15.3,13.5-27.7,30.1-27.7
		c16.6,0,30.1,12.4,30.1,27.7C210.3,249.9,196.8,262.3,180.2,262.3z M180.2,195.6c-16.6,0-30.1-12.4-30.1-27.7s13.5-27.7,30.1-27.7
		c16.6,0,30.1,12.4,30.1,27.7S196.8,195.6,180.2,195.6z M180.2,127.8c-16.6,0-30.1-12.4-30.1-27.7s13.5-27.7,30.1-27.7
		c16.6,0,30.1,12.4,30.1,27.7S196.8,127.8,180.2,127.8z M265.2,471.5c-16.6,0-30.1-12.4-30.1-27.7s13.5-27.7,30.1-27.7
		c16.6,0,30.1,12.4,30.1,27.7S281.8,471.5,265.2,471.5z M265.2,404.8c-16.6,0-30.1-12.4-30.1-27.7c0-15.3,13.5-27.7,30.1-27.7
		c16.6,0,30.1,12.4,30.1,27.7C295.3,392.5,281.8,404.8,265.2,404.8z M265.2,333.6c-16.6,0-30.1-12.4-30.1-27.7
		c0-15.3,13.5-27.7,30.1-27.7c16.6,0,30.1,12.4,30.1,27.7C295.3,321.2,281.8,333.6,265.2,333.6z M265.2,264.6
		c-16.6,0-30.1-12.4-30.1-27.7s13.5-27.7,30.1-27.7c16.6,0,30.1,12.4,30.1,27.7S281.8,264.6,265.2,264.6z M265.2,197.9
		c-16.6,0-30.1-12.4-30.1-27.7c0-15.3,13.5-27.7,30.1-27.7c16.6,0,30.1,12.4,30.1,27.7C295.3,185.6,281.8,197.9,265.2,197.9z
		 M265.2,130.1c-16.6,0-30.1-12.4-30.1-27.7s13.5-27.7,30.1-27.7c16.6,0,30.1,12.4,30.1,27.7S281.8,130.1,265.2,130.1z M351.2,473.1
		c-16.6,0-30.1-12.4-30.1-27.7c0-15.3,13.5-27.7,30.1-27.7c16.6,0,30.1,12.4,30.1,27.7C381.3,460.7,367.8,473.1,351.2,473.1z
		 M351.2,406.5c-16.6,0-30.1-12.4-30.1-27.7c0-15.3,13.5-27.7,30.1-27.7c16.6,0,30.1,12.4,30.1,27.7
		C381.3,394.1,367.8,406.5,351.2,406.5z M351.2,335.2c-16.6,0-30.1-12.4-30.1-27.7c0-15.3,13.5-27.7,30.1-27.7
		c16.6,0,30.1,12.4,30.1,27.7C381.3,322.8,367.8,335.2,351.2,335.2z M351.2,266.2c-16.6,0-30.1-12.4-30.1-27.7s13.5-27.7,30.1-27.7
		c16.6,0,30.1,12.4,30.1,27.7S367.8,266.2,351.2,266.2z M351.2,199.6c-16.6,0-30.1-12.4-30.1-27.7s13.5-27.7,30.1-27.7
		c16.6,0,30.1,12.4,30.1,27.7S367.8,199.6,351.2,199.6z M351.2,131.7c-16.6,0-30.1-12.4-30.1-27.7c0-15.3,13.5-27.7,30.1-27.7
		c16.6,0,30.1,12.4,30.1,27.7C381.3,119.3,367.8,131.7,351.2,131.7z M437.5,471.9c-16.6,0-30.1-12.4-30.1-27.7s13.5-27.7,30.1-27.7
		c16.6,0,30.1,12.4,30.1,27.7S454.1,471.9,437.5,471.9z M437.5,405.3c-16.6,0-30.1-12.4-30.1-27.7c0-15.3,13.5-27.7,30.1-27.7
		c16.6,0,30.1,12.4,30.1,27.7C467.6,392.9,454.1,405.3,437.5,405.3z M437.5,334c-16.6,0-30.1-12.4-30.1-27.7
		c0-15.3,13.5-27.7,30.1-27.7c16.6,0,30.1,12.4,30.1,27.7C467.6,321.6,454.1,334,437.5,334z M437.5,265.1
		c-16.6,0-30.1-12.4-30.1-27.7c0-15.3,13.5-27.7,30.1-27.7c16.6,0,30.1,12.4,30.1,27.7C467.6,252.7,454.1,265.1,437.5,265.1z
		 M437.5,198.4c-16.6,0-30.1-12.4-30.1-27.7s13.5-27.7,30.1-27.7c16.6,0,30.1,12.4,30.1,27.7S454.1,198.4,437.5,198.4z M437.5,130.6
		c-16.6,0-30.1-12.4-30.1-27.7s13.5-27.7,30.1-27.7c16.6,0,30.1,12.4,30.1,27.7S454.1,130.6,437.5,130.6z M519.9,470.6
		c-16.6,0-30.1-12.4-30.1-27.7c0-15.3,13.5-27.7,30.1-27.7c16.6,0,30.1,12.4,30.1,27.7C550,458.2,536.5,470.6,519.9,470.6z
		 M519.9,403.9c-16.6,0-30.1-12.4-30.1-27.7c0-15.3,13.5-27.7,30.1-27.7c16.6,0,30.1,12.4,30.1,27.7
		C550,391.5,536.5,403.9,519.9,403.9z M519.9,332.6c-16.6,0-30.1-12.4-30.1-27.7c0-15.3,13.5-27.7,30.1-27.7
		c16.6,0,30.1,12.4,30.1,27.7C550,320.2,536.5,332.6,519.9,332.6z M519.9,263.7c-16.6,0-30.1-12.4-30.1-27.7
		c0-15.3,13.5-27.7,30.1-27.7c16.6,0,30.1,12.4,30.1,27.7C550,251.3,536.5,263.7,519.9,263.7z M519.9,197
		c-16.6,0-30.1-12.4-30.1-27.7s13.5-27.7,30.1-27.7c16.6,0,30.1,12.4,30.1,27.7S536.5,197,519.9,197z M519.9,129.2
		c-16.6,0-30.1-12.4-30.1-27.7s13.5-27.7,30.1-27.7c16.6,0,30.1,12.4,30.1,27.7S536.5,129.2,519.9,129.2z M600.9,469.2
		c-16.6,0-30.1-12.4-30.1-27.7c0-15.3,13.5-27.7,30.1-27.7c16.6,0,30.1,12.4,30.1,27.7C631,456.8,617.5,469.2,600.9,469.2z
		 M600.9,402.5c-16.6,0-30.1-12.4-30.1-27.7c0-15.3,13.5-27.7,30.1-27.7c16.6,0,30.1,12.4,30.1,27.7
		C631,390.1,617.5,402.5,600.9,402.5z M600.9,331.2c-16.6,0-30.1-12.4-30.1-27.7s13.5-27.7,30.1-27.7c16.6,0,30.1,12.4,30.1,27.7
		S617.5,331.2,600.9,331.2z M600.9,262.3c-16.6,0-30.1-12.4-30.1-27.7c0-15.3,13.5-27.7,30.1-27.7c16.6,0,30.1,12.4,30.1,27.7
		C631,249.9,617.5,262.3,600.9,262.3z M600.9,195.6c-16.6,0-30.1-12.4-30.1-27.7s13.5-27.7,30.1-27.7c16.6,0,30.1,12.4,30.1,27.7
		S617.5,195.6,600.9,195.6z M600.9,127.8c-16.6,0-30.1-12.4-30.1-27.7s13.5-27.7,30.1-27.7c16.6,0,30.1,12.4,30.1,27.7
		S617.5,127.8,600.9,127.8z"/>
	<g id="elipses">
		<path class="st5" d="M51,24.3c98.8-1.4,223.2,0,305.2,2.9s208.4,2.2,270.9,0s66.6-12.2,67.2,64.6c0.6,68.2,6.1,130.7,6.1,182.4
			s-2,135-0.7,196.1c1.3,61-6.7,56-71.3,52.4c-66.6-3.7-205.7-5-282.4-2.2c-74.7,2.8-223.9,1.4-294.5,2.9
			c-70.6,1.4-51.8-4.3-55.1-86.9s0-104.1-1.3-173.8c-1.3-67.6-4.3-142.7-4.7-178.1C-10.2,22.1-16.2,22.9,51,24.3z"/>
		<ellipse class="st6" cx="50" cy="100.5" rx="33.7" ry="30.9"/>
		<ellipse class="st6" cx="50" cy="328.2" rx="33.7" ry="30.9"/>
		<ellipse class="st6" cx="50" cy="251.1" rx="33.7" ry="30.9"/>
		<ellipse class="st6" cx="50" cy="176.5" rx="33.7" ry="30.9"/>
		<ellipse class="st6" cx="50" cy="408" rx="33.7" ry="30.9"/>
		<ellipse class="st6" cx="50" cy="482.6" rx="33.7" ry="30.9"/>
		<ellipse class="st6" cx="143.7" cy="101" rx="33.7" ry="30.9"/>
		<ellipse class="st6" cx="143.7" cy="328.7" rx="33.7" ry="30.9"/>
		<ellipse class="st6" cx="143.7" cy="251.5" rx="33.7" ry="30.9"/>
		<ellipse class="st6" cx="143.7" cy="176.9" rx="33.7" ry="30.9"/>
		<ellipse class="st6" cx="143.7" cy="408.4" rx="33.7" ry="30.9"/>
		<ellipse class="st6" cx="143.7" cy="483" rx="33.7" ry="30.9"/>
		<ellipse class="st6" cx="238.9" cy="103.5" rx="33.7" ry="30.9"/>
		<ellipse class="st6" cx="238.9" cy="331.2" rx="33.7" ry="30.9"/>
		<ellipse class="st6" cx="238.9" cy="254.1" rx="33.7" ry="30.9"/>
		<ellipse class="st6" cx="238.9" cy="179.5" rx="33.7" ry="30.9"/>
		<ellipse class="st6" cx="238.9" cy="411" rx="33.7" ry="30.9"/>
		<ellipse class="st6" cx="238.9" cy="485.6" rx="33.7" ry="30.9"/>
		<ellipse class="st6" cx="335.1" cy="105.4" rx="33.7" ry="30.9"/>
		<ellipse class="st6" cx="335.1" cy="333.1" rx="33.7" ry="30.9"/>
		<ellipse class="st6" cx="335.1" cy="255.9" rx="33.7" ry="30.9"/>
		<ellipse class="st6" cx="335.1" cy="181.3" rx="33.7" ry="30.9"/>
		<ellipse class="st6" cx="335.1" cy="412.8" rx="33.7" ry="30.9"/>
		<ellipse class="st6" cx="335.1" cy="487.4" rx="33.7" ry="30.9"/>
		<ellipse class="st6" cx="431.7" cy="104.1" rx="33.7" ry="30.9"/>
		<ellipse class="st6" cx="431.7" cy="331.8" rx="33.7" ry="30.9"/>
		<ellipse class="st6" cx="431.7" cy="254.6" rx="33.7" ry="30.9"/>
		<ellipse class="st6" cx="431.7" cy="180" rx="33.7" ry="30.9"/>
		<ellipse class="st6" cx="431.7" cy="411.5" rx="33.7" ry="30.9"/>
		<ellipse class="st6" cx="431.7" cy="486.1" rx="33.7" ry="30.9"/>
		<ellipse class="st6" cx="524" cy="102.5" rx="33.7" ry="30.9"/>
		<ellipse class="st6" cx="524" cy="330.2" rx="33.7" ry="30.9"/>
		<ellipse class="st6" cx="524" cy="253" rx="33.7" ry="30.9"/>
		<ellipse class="st6" cx="524" cy="178.4" rx="33.7" ry="30.9"/>
		<ellipse class="st6" cx="524" cy="410" rx="33.7" ry="30.9"/>
		<ellipse class="st6" cx="524" cy="484.6" rx="33.7" ry="30.9"/>
		<ellipse class="st6" cx="614.6" cy="101" rx="33.7" ry="30.9"/>
		<ellipse class="st6" cx="614.6" cy="328.7" rx="33.7" ry="30.9"/>
		<ellipse class="st6" cx="614.6" cy="251.5" rx="33.7" ry="30.9"/>
		<ellipse class="st6" cx="614.6" cy="176.9" rx="33.7" ry="30.9"/>
		<ellipse class="st6" cx="614.6" cy="408.4" rx="33.7" ry="30.9"/>
		<ellipse class="st6" cx="614.6" cy="483" rx="33.7" ry="30.9"/>
	</g>
</g>
<g id="Nim" class="st0">
	<g id="_x34_" class="st1">
		<g>
			<path class="st7" d="M604.8,231.9c83-2.5,95,59.5,4.3,62.1C523.1,296.6,507.9,233.8,604.8,231.9z"/>
			<path class="st7" d="M551.8,293.5c22.9,16.9,84.5,14.2,106.9-0.1c23.6-15.1,25,0.8-6.4,17.3c-30.3,15.9-71,14.9-98.2-1.9
				C532.6,295.5,533.8,279.4,551.8,293.5z"/>
			<path class="st7" d="M551.8,318.6c22.9,16.9,84.5,14.2,106.9-0.1c23.6-15.1,25,0.8-6.4,17.3c-30.3,15.9-71,14.9-98.2-1.9
				C532.6,320.6,533.8,304.6,551.8,318.6z"/>
			<path class="st7" d="M551.8,345.7c22.9,16.9,84.5,14.2,106.9-0.1c23.6-15.1,25,0.8-6.4,17.3c-30.3,15.9-71,14.9-98.2-1.9
				C532.6,347.7,533.8,331.6,551.8,345.7z"/>
			<path class="st7" d="M551.8,369.8c22.9,16.9,84.5,14.2,106.9-0.1c23.6-15.1,25,0.8-6.4,17.3c-30.3,15.9-71,14.9-98.2-1.9
				C532.6,371.8,533.8,355.8,551.8,369.8z"/>
			<path class="st7" d="M551.8,397.8c22.9,16.9,84.5,14.2,106.9-0.1c23.6-15.1,25,0.8-6.4,17.3c-30.3,15.9-71,14.9-98.2-1.9
				C532.6,399.8,533.8,383.8,551.8,397.8z"/>
			<path class="st7" d="M551.8,422.5c22.9,16.9,84.5,14.2,106.9-0.1c23.6-15.1,25,0.8-6.4,17.3c-30.3,15.9-71,14.9-98.2-1.9
				C532.6,424.5,533.8,408.4,551.8,422.5z"/>
		</g>
	</g>
	<g id="_x33_" class="st1">
		<g>
			<path class="st7" d="M438.6,285.9c83-2.5,95,59.5,4.3,62.1C356.9,350.6,341.7,287.8,438.6,285.9z"/>
			<path class="st7" d="M385.7,345.7c22.9,16.9,84.5,14.2,106.9-0.1c23.6-15.1,25,0.8-6.4,17.3c-30.3,15.9-71,14.9-98.2-1.9
				C366.4,347.7,367.6,331.6,385.7,345.7z"/>
			<path class="st7" d="M385.7,369.8c22.9,16.9,84.5,14.2,106.9-0.1c23.6-15.1,25,0.8-6.4,17.3c-30.3,15.9-71,14.9-98.2-1.9
				C366.4,371.8,367.6,355.8,385.7,369.8z"/>
			<path class="st7" d="M385.7,397.8c22.9,16.9,84.5,14.2,106.9-0.1c23.6-15.1,25,0.8-6.4,17.3c-30.3,15.9-71,14.9-98.2-1.9
				C366.4,399.8,367.6,383.8,385.7,397.8z"/>
			<path class="st7" d="M385.7,422.5c22.9,16.9,84.5,14.2,106.9-0.1c23.6-15.1,25,0.8-6.4,17.3c-30.3,15.9-71,14.9-98.2-1.9
				C366.4,424.5,367.6,408.4,385.7,422.5z"/>
		</g>
	</g>
	<g id="_x32_" class="st1">
		<g>
			<path class="st8" d="M271.6,76.1c83-2.5,95,59.5,4.3,62.1C189.8,140.8,174.6,78,271.6,76.1z"/>
			<path class="st8" d="M218.6,136.7c22.9,16.9,84.5,14.2,106.9-0.1c23.6-15.1,25,0.8-6.4,17.3c-30.3,15.9-71,14.9-98.2-1.9
				C199.4,138.7,200.6,122.6,218.6,136.7z"/>
			<path class="st8" d="M218.6,159.9c22.9,16.9,84.5,14.2,106.9-0.1c23.6-15.1,25,0.8-6.4,17.3c-30.3,15.9-71,14.9-98.2-1.9
				C199.4,161.8,200.6,145.8,218.6,159.9z"/>
			<path class="st7" d="M218.6,293.5c22.9,16.9,84.5,14.2,106.9-0.1c23.6-15.1,25,0.8-6.4,17.3c-30.3,15.9-71,14.9-98.2-1.9
				C199.4,295.5,200.6,279.4,218.6,293.5z"/>
			<path class="st7" d="M218.6,318.6c22.9,16.9,84.5,14.2,106.9-0.1c23.6-15.1,25,0.8-6.4,17.3c-30.3,15.9-71,14.9-98.2-1.9
				C199.4,320.6,200.6,304.6,218.6,318.6z"/>
			<path class="st7" d="M218.6,345.7c22.9,16.9,84.5,14.2,106.9-0.1c23.6-15.1,25,0.8-6.4,17.3c-30.3,15.9-71,14.9-98.2-1.9
				C199.4,347.7,200.6,331.6,218.6,345.7z"/>
			<path class="st7" d="M218.6,369.8c22.9,16.9,84.5,14.2,106.9-0.1c23.6-15.1,25,0.8-6.4,17.3c-30.3,15.9-71,14.9-98.2-1.9
				C199.4,371.8,200.6,355.8,218.6,369.8z"/>
			<path class="st7" d="M218.6,397.8c22.9,16.9,84.5,14.2,106.9-0.1c23.6-15.1,25,0.8-6.4,17.3c-30.3,15.9-71,14.9-98.2-1.9
				C199.4,399.8,200.6,383.8,218.6,397.8z"/>
			<path class="st7" d="M218.6,422.5c22.9,16.9,84.5,14.2,106.9-0.1c23.6-15.1,25,0.8-6.4,17.3c-30.3,15.9-71,14.9-98.2-1.9
				C199.4,424.5,200.6,408.4,218.6,422.5z"/>
			<path class="st7" d="M271.6,232.6c83-2.5,95,59.5,4.3,62.1C189.8,297.3,174.6,234.5,271.6,232.6z"/>
		</g>
	</g>
	<g id="_x31_" class="st1">
		<g>
			<path class="st7" d="M105.4,207c83-2.5,95,59.5,4.3,62.1C23.7,271.7,8.5,208.9,105.4,207z"/>
			<path class="st7" d="M52.4,267.9c22.9,16.9,84.5,14.2,106.9-0.1c23.6-15.1,25,0.8-6.4,17.3c-30.3,15.9-71,14.9-98.2-1.9
				C33.2,269.9,34.4,253.8,52.4,267.9z"/>
			<path class="st7" d="M52.4,293.5c22.9,16.9,84.5,14.2,106.9-0.1c23.6-15.1,25,0.8-6.4,17.3c-30.3,15.9-71,14.9-98.2-1.9
				C33.2,295.5,34.4,279.4,52.4,293.5z"/>
			<path class="st7" d="M52.4,318.6c22.9,16.9,84.5,14.2,106.9-0.1c23.6-15.1,25,0.8-6.4,17.3c-30.3,15.9-71,14.9-98.2-1.9
				C33.2,320.6,34.4,304.6,52.4,318.6z"/>
			<path class="st7" d="M52.4,345.7c22.9,16.9,84.5,14.2,106.9-0.1c23.6-15.1,25,0.8-6.4,17.3c-30.3,15.9-71,14.9-98.2-1.9
				C33.2,347.7,34.4,331.6,52.4,345.7z"/>
			<path class="st7" d="M52.4,369.8c22.9,16.9,84.5,14.2,106.9-0.1c23.6-15.1,25,0.8-6.4,17.3c-30.3,15.9-71,14.9-98.2-1.9
				C33.2,371.8,34.4,355.8,52.4,369.8z"/>
			<path class="st7" d="M52.4,397.8c22.9,16.9,84.5,14.2,106.9-0.1c23.6-15.1,25,0.8-6.4,17.3c-30.3,15.9-71,14.9-98.2-1.9
				C33.2,399.8,34.4,383.8,52.4,397.8z"/>
			<path class="st7" d="M52.4,422.5c22.9,16.9,84.5,14.2,106.9-0.1c23.6-15.1,25,0.8-6.4,17.3c-30.3,15.9-71,14.9-98.2-1.9
				C33.2,424.5,34.4,408.4,52.4,422.5z"/>
		</g>
	</g>
</g>
<g id="ttt" class="st0">
	<g id="circ">
		<path class="st9" d="M201.8,59.4c-28,0-50.7,23.1-50.7,51.6c0,28.5,22.7,51.6,50.7,51.6s50.7-23.1,50.7-51.6
			C252.5,82.5,229.8,59.4,201.8,59.4z M203.8,151.9c-23.7,0-42.1-17.1-42.1-41.2s14.8-41.6,38.5-41.6S245,83.5,245,107.6
			S227.5,151.9,203.8,151.9z"/>
		<path class="st9" d="M350.4,199.8c-28,0-50.7,23.1-50.7,51.6c0,28.5,22.7,51.6,50.7,51.6s50.7-23.1,50.7-51.6
			C401.1,222.9,378.4,199.8,350.4,199.8z M352.4,292.3c-23.7,0-42.1-17.1-42.1-41.2s14.8-41.6,38.5-41.6c23.7,0,44.7,14.4,44.7,38.5
			S376.1,292.3,352.4,292.3z"/>
		<path class="st9" d="M494.4,339.6c-28,0-50.7,23.1-50.7,51.6c0,28.5,22.7,51.6,50.7,51.6s50.7-23.1,50.7-51.6
			C545.1,362.7,522.4,339.6,494.4,339.6z M496.4,432.2c-23.7,0-42.1-17.1-42.1-41.2c0-24.1,14.8-41.6,38.5-41.6s44.7,14.4,44.7,38.5
			C537.6,412,520.1,432.2,496.4,432.2z"/>
	</g>
	<g id="cross">
		<path class="st10" d="M451.7,253.3c14.4,1.2,68.5,3.7,85.8,4.1c17.2,0.4,12.7-8.2-1.6-9.4s-67.4-2.9-83.7-3.3
			C432.4,244.3,436.5,251.2,451.7,253.3z"/>
		<path class="st10" d="M490.2,209.6c-1.2,14.4-3.7,68.5-4.1,85.8s8.2,12.7,9.4-1.6c1.2-14.4,2.9-67.4,3.3-83.7
			C499.3,190.4,492.3,194.5,490.2,209.6z"/>
		<path class="st10" d="M308.7,399.4c14.4,0.5,68.6,0.1,85.9-0.4s12.3-8.9-2.1-9.3c-14.4-0.5-67.4,0.6-83.8,1.1
			C289,391.4,293.4,398.1,308.7,399.4z"/>
		<path class="st10" d="M344.9,353.8c-0.5,14.4-0.1,68.6,0.4,85.9s8.9,12.3,9.3-2.1c0.5-14.4-0.6-67.4-1.1-83.8
			C352.9,334,346.1,338.5,344.9,353.8z"/>
		<path class="st10" d="M163,255.2c14.4,1.2,68.5,3.7,85.8,4.1c17.2,0.4,12.7-8.2-1.6-9.4c-14.4-1.2-67.4-2.9-83.7-3.3
			C143.7,246.2,147.8,253.2,163,255.2z"/>
		<path class="st10" d="M201.5,211.6c-1.2,14.4-3.7,68.5-4.1,85.8c-0.4,17.2,8.2,12.7,9.4-1.6c1.2-14.4,2.9-67.4,3.3-83.7
			C210.5,192.3,203.6,196.4,201.5,211.6z"/>
	</g>
	<g id="playground">
		<path class="st11" d="M271.3,271.5c1.9,205.9,4.2,210.1,8.8,210.1s8-1.7,7.9-210.1c-0.1-231.9-3.4-229.8-8-229.8
			S269.3,42.8,271.3,271.5z"/>
		<path class="st11" d="M414,266c1.9,205.9,4.2,210.1,8.8,210.1s8-1.7,7.9-210.1c-0.1-231.9-3.4-229.8-8-229.8S411.9,37.3,414,266z"
			/>
		<path class="st11" d="M353.4,192.8c205.9-1.9,210.1-4.2,210.1-8.8c0-4.6-1.7-8-210.1-7.9c-231.9,0.1-229.8,3.4-229.8,8
			C123.6,188.7,124.7,194.9,353.4,192.8z"/>
		<path class="st11" d="M357.2,327c205.9-1.9,210.1-4.2,210.1-8.8s-1.7-8-210.1-7.9c-231.9,0.1-229.8,3.4-229.8,8
			S128.4,329.1,357.2,327z"/>
		<path class="st12" d="M367.9,195.1c396.1-2.7,404.2-6.1,404.2-12.8s-3.2-11.6-404.2-11.5c-446,0.2-442.1,4.9-442.1,11.6
			C-74.2,189.1-72.1,198.1,367.9,195.1z"/>
		<path class="st11" d="M338,202.5c2.6,396.4,5.8,404.5,12.3,404.5c6.4,0,11.1-3.2,11-404.5c-0.2-446.4-4.7-442.4-11.1-442.4
			S335.1-237.9,338,202.5z"/>
	</g>
</g>
<g id="achievements" class="st0">
	<rect x="225.4" y="208.8" width="335.5" height="291.1"/>
	<g id="ai_x5F_achieved">
		<circle class="st13" cx="389.7" cy="354.7" r="120.5"/>
		<path class="st14" d="M324.7,411.2h130c8.6,0,15.5,6.9,15.5,15.5v33c0,8.6-6.9,15.5-15.5,15.5h-130c-8.6,0-15.5-6.9-15.5-15.5v-33
			C309.2,418.1,316.1,411.2,324.7,411.2z"/>
		<defs>
			<filter id="Adobe_OpacityMaskFilter" filterUnits="userSpaceOnUse" x="322.7" y="279.7" width="140" height="86">
				<feColorMatrix  type="matrix" values="1 0 0 0 0  0 1 0 0 0  0 0 1 0 0  0 0 0 1 0"/>
			</filter>
		</defs>
		
			<mask maskUnits="userSpaceOnUse" x="322.7" y="279.7" width="140" height="86" id="path-4-inside-1_5_6_00000148649528262235525670000005897882449095094962_" class="st1">
			<path style="fill:#FFFFFF;filter:url(#Adobe_OpacityMaskFilter);" d="M338.7,288.7h108c3.9,0,7,3.1,7,7v54c0,3.9-3.1,7-7,7h-108
				c-3.9,0-7-3.1-7-7v-54C331.7,291.8,334.8,288.7,338.7,288.7z"/>
		</mask>
		<path class="st16" d="M338.7,288.7h108c3.9,0,7,3.1,7,7v54c0,3.9-3.1,7-7,7h-108c-3.9,0-7-3.1-7-7v-54
			C331.7,291.8,334.8,288.7,338.7,288.7z"/>
		<defs>
			
				<filter id="Adobe_OpacityMaskFilter_00000065767878621443356940000000238259732102216878_" filterUnits="userSpaceOnUse" x="307.7" y="292.7" width="42" height="53">
				<feColorMatrix  type="matrix" values="1 0 0 0 0  0 1 0 0 0  0 0 1 0 0  0 0 0 1 0"/>
			</filter>
		</defs>
		
			<mask maskUnits="userSpaceOnUse" x="307.7" y="292.7" width="42" height="53" id="path-5-inside-2_5_6_00000050637417948350741190000008904054285621248925_" class="st1">
			<path style="fill:#FFFFFF;filter:url(#Adobe_OpacityMaskFilter_00000065767878621443356940000000238259732102216878_);" d="
				M321.7,301.7h14c2.8,0,5,2.2,5,5v25c0,2.8-2.2,5-5,5h-14c-2.8,0-5-2.2-5-5v-25C316.7,303.9,318.9,301.7,321.7,301.7z"/>
		</mask>
		<path class="st18" d="M321.7,301.7h14c2.8,0,5,2.2,5,5v25c0,2.8-2.2,5-5,5h-14c-2.8,0-5-2.2-5-5v-25
			C316.7,303.9,318.9,301.7,321.7,301.7z"/>
		<defs>
			
				<filter id="Adobe_OpacityMaskFilter_00000132084771229283033650000009341271498692098714_" filterUnits="userSpaceOnUse" x="435.7" y="292.7" width="42" height="53">
				<feColorMatrix  type="matrix" values="1 0 0 0 0  0 1 0 0 0  0 0 1 0 0  0 0 0 1 0"/>
			</filter>
		</defs>
		
			<mask maskUnits="userSpaceOnUse" x="435.7" y="292.7" width="42" height="53" id="path-6-inside-3_5_6_00000183970611318821715120000003762878840602127286_" class="st1">
			<path style="fill:#FFFFFF;filter:url(#Adobe_OpacityMaskFilter_00000132084771229283033650000009341271498692098714_);" d="
				M449.7,301.7h14c2.8,0,5,2.2,5,5v25c0,2.8-2.2,5-5,5h-14c-2.8,0-5-2.2-5-5v-25C444.7,303.9,446.9,301.7,449.7,301.7z"/>
		</mask>
		<path class="st20" d="M449.7,301.7h14c2.8,0,5,2.2,5,5v25c0,2.8-2.2,5-5,5h-14c-2.8,0-5-2.2-5-5v-25
			C444.7,303.9,446.9,301.7,449.7,301.7z"/>
		<path class="st14" d="M346.2,365.2h95v11.5c0,3-2.5,5.5-5.5,5.5h-84c-3,0-5.5-2.5-5.5-5.5V365.2z"/>
		<rect x="379.2" y="382.2" class="st14" width="27" height="29"/>
		<circle class="st21" cx="372.7" cy="322.7" r="10.5"/>
		<circle class="st21" cx="415.7" cy="322.7" r="10.5"/>
		<circle class="st22" cx="389.7" cy="354.7" r="135"/>
		<circle class="st23" cx="389.7" cy="354.7" r="120.5"/>
	</g>
	<g id="ai_x5F_notAchieved">
		<circle class="st24" cx="396.7" cy="352.2" r="120.5"/>
		<path class="st24" d="M331.7,408.7h130c8.6,0,15.5,6.9,15.5,15.5v33c0,8.6-6.9,15.5-15.5,15.5h-130c-8.6,0-15.5-6.9-15.5-15.5v-33
			C316.2,415.7,323.1,408.7,331.7,408.7z"/>
		<defs>
			
				<filter id="Adobe_OpacityMaskFilter_00000027570651986006040970000003601066801544992946_" filterUnits="userSpaceOnUse" x="329.7" y="277.2" width="140" height="86">
				<feColorMatrix  type="matrix" values="1 0 0 0 0  0 1 0 0 0  0 0 1 0 0  0 0 0 1 0"/>
			</filter>
		</defs>
		
			<mask maskUnits="userSpaceOnUse" x="329.7" y="277.2" width="140" height="86" id="path-4-inside-1_5_6_00000124143772594532490810000014602182733662636208_" class="st1">
			<path style="fill:#FFFFFF;filter:url(#Adobe_OpacityMaskFilter_00000027570651986006040970000003601066801544992946_);" d="
				M345.7,286.2h108c3.9,0,7,3.1,7,7v54c0,3.9-3.1,7-7,7h-108c-3.9,0-7-3.1-7-7v-54C338.7,289.3,341.8,286.2,345.7,286.2z"/>
		</mask>
		<path class="st26" d="M345.7,286.2h108c3.9,0,7,3.1,7,7v54c0,3.9-3.1,7-7,7h-108c-3.9,0-7-3.1-7-7v-54
			C338.7,289.3,341.8,286.2,345.7,286.2z"/>
		<defs>
			
				<filter id="Adobe_OpacityMaskFilter_00000142139896300742448780000012274130728392176513_" filterUnits="userSpaceOnUse" x="314.7" y="290.2" width="42" height="53">
				<feColorMatrix  type="matrix" values="1 0 0 0 0  0 1 0 0 0  0 0 1 0 0  0 0 0 1 0"/>
			</filter>
		</defs>
		
			<mask maskUnits="userSpaceOnUse" x="314.7" y="290.2" width="42" height="53" id="path-5-inside-2_5_6_00000059267965679104186640000001785550261766695852_" class="st1">
			<path style="fill:#FFFFFF;filter:url(#Adobe_OpacityMaskFilter_00000142139896300742448780000012274130728392176513_);" d="
				M328.7,299.2h14c2.8,0,5,2.2,5,5v25c0,2.8-2.2,5-5,5h-14c-2.8,0-5-2.2-5-5v-25C323.7,301.5,325.9,299.2,328.7,299.2z"/>
		</mask>
		<path class="st28" d="M328.7,299.2h14c2.8,0,5,2.2,5,5v25c0,2.8-2.2,5-5,5h-14c-2.8,0-5-2.2-5-5v-25
			C323.7,301.5,325.9,299.2,328.7,299.2z"/>
		<defs>
			
				<filter id="Adobe_OpacityMaskFilter_00000124873074351873343910000016728054392754131870_" filterUnits="userSpaceOnUse" x="442.7" y="290.2" width="42" height="53">
				<feColorMatrix  type="matrix" values="1 0 0 0 0  0 1 0 0 0  0 0 1 0 0  0 0 0 1 0"/>
			</filter>
		</defs>
		
			<mask maskUnits="userSpaceOnUse" x="442.7" y="290.2" width="42" height="53" id="path-6-inside-3_5_6_00000114791626518002228390000011821192389487476105_" class="st1">
			<path style="fill:#FFFFFF;filter:url(#Adobe_OpacityMaskFilter_00000124873074351873343910000016728054392754131870_);" d="
				M456.7,299.2h14c2.8,0,5,2.2,5,5v25c0,2.8-2.2,5-5,5h-14c-2.8,0-5-2.2-5-5v-25C451.7,301.5,453.9,299.2,456.7,299.2z"/>
		</mask>
		<path class="st30" d="M456.7,299.2h14c2.8,0,5,2.2,5,5v25c0,2.8-2.2,5-5,5h-14c-2.8,0-5-2.2-5-5v-25
			C451.7,301.5,453.9,299.2,456.7,299.2z"/>
		<path class="st24" d="M353.2,362.7h95v11.5c0,3-2.5,5.5-5.5,5.5h-84c-3,0-5.5-2.5-5.5-5.5V362.7z"/>
		<rect x="386.2" y="379.7" class="st24" width="27" height="29"/>
		<circle class="st31" cx="379.7" cy="320.2" r="10.5"/>
		<circle class="st31" cx="422.7" cy="320.2" r="10.5"/>
		<circle class="st32" cx="396.7" cy="352.2" r="135"/>
		<circle class="st33" cx="396.7" cy="352.2" r="120.5"/>
	</g>
	<g id="human_x5F_achieved">
		<circle class="st4" cx="396.7" cy="352.7" r="120.5"/>
		<circle class="st23" cx="396.7" cy="352.7" r="120.5"/>
		<path class="st14" d="M351.7,366.2h90c19.6,0,35.5,15.9,35.5,35.5v36c0,19.6-15.9,35.5-35.5,35.5h-90c-19.6,0-35.5-15.9-35.5-35.5
			v-36C316.2,382.1,332.1,366.2,351.7,366.2z"/>
		<circle class="st23" cx="396.7" cy="352.7" r="120.5"/>
		<circle class="st14" cx="396.7" cy="311.7" r="40.5"/>
		<line class="st34" x1="352.2" y1="469.2" x2="352.2" y2="413.2"/>
		<line class="st34" x1="442.2" y1="469.2" x2="442.2" y2="413.2"/>
		<circle class="st22" cx="396.7" cy="352.7" r="135"/>
	</g>
	<g id="human_x5F_notAchieved">
		<circle class="st35" cx="396.7" cy="352.7" r="120.5"/>
		<circle class="st33" cx="396.7" cy="352.7" r="120.5"/>
		<path class="st24" d="M351.7,366.2h90c19.6,0,35.5,15.9,35.5,35.5v36c0,19.6-15.9,35.5-35.5,35.5h-90c-19.6,0-35.5-15.9-35.5-35.5
			v-36C316.2,382.1,332.1,366.2,351.7,366.2z"/>
		<circle class="st33" cx="396.7" cy="352.7" r="120.5"/>
		<circle class="st24" cx="396.7" cy="311.7" r="40.5"/>
		<line class="st36" x1="352.2" y1="469.2" x2="352.2" y2="413.2"/>
		<line class="st36" x1="442.2" y1="469.2" x2="442.2" y2="413.2"/>
		<circle class="st32" cx="396.7" cy="352.7" r="135"/>
	</g>
</g>
<g id="colors">
	<rect class="st37" width="255.1" height="368.5"/>
	<circle class="st5" cx="70.9" cy="70.9" r="35.4"/>
	<circle class="st9" cx="70.9" cy="184.3" r="35.4"/>
	<circle class="st10" cx="70.9" cy="297.6" r="35.4"/>
	<circle class="st38" cx="184.3" cy="70.9" r="35.4"/>
	<circle class="st39" cx="184.3" cy="184.3" r="35.4"/>
	<circle class="st40" cx="184.3" cy="297.6" r="35.4"/>
</g>
</svg>
