<?xml version="1.0" encoding="utf-8"?>
<!-- Generator: Adobe Illustrator 26.0.0, SVG Export Plug-In . SVG Version: 6.00 Build 0)  -->
<svg version="1.1" id="Ebene_1" xmlns="http://www.w3.org/2000/svg" xmlns:xlink="http://www.w3.org/1999/xlink" x="0px" y="0px"
	 width="211px" height="274.8px" viewBox="0 0 211 274.8" style="enable-background:new 0 0 211 274.8;" xml:space="preserve">
<style type="text/css">
	.st0{display:none;fill:#12191F;}
	.st1{fill:none;stroke:#3C3C3B;stroke-width:3;stroke-miterlimit:10;}
</style>
<image style="display:none;overflow:visible;" width="1279" height="420" xlink:href="EC5A1E1.jpg"  transform="matrix(0.6542 0 0 0.6542 -613.8129 0)">
</image>
<rect x="-60.6" y="-25.9" class="st0" width="319.1" height="343.4"/>
<g>
	<path class="st1" d="M16.7,255.5c0,2.3,1.9,4.3,4.3,4.3h168.9c2.3,0,4.3-1.9,4.3-4.3V21.4c0-2.3-1.9-4.3-4.3-4.3H21
		c-2.3,0-4.3,1.9-4.3,4.3V255.5z"/>
</g>
<g>
	<path class="st1" d="M39.9,247.2c0,1.6,1.3,2.8,2.8,2.8h50.6c1.6,0,2.8-1.3,2.8-2.8v-21.5c0-1.6-1.3-2.8-2.8-2.8H42.7
		c-1.6,0-2.8,1.3-2.8,2.8V247.2z"/>
</g>
<g>
	<path class="st1" d="M116.4,247.4c0,1.6,1.3,2.8,2.8,2.8h50.6c1.6,0,2.8-1.3,2.8-2.8v-21.5c0-1.6-1.3-2.8-2.8-2.8h-50.6
		c-1.6,0-2.8,1.3-2.8,2.8V247.4z"/>
</g>
<line class="st1" x1="16.7" y1="133.4" x2="193.2" y2="133.4"/>
<g>
	<g>
		<path d="M59.3,152.6h1.8l6.9,11l-0.2,0.3v-11.2h2v14.2H68L61.1,156l0.2-0.3v11.1h-2V152.6z"/>
		<path d="M74.9,166.4c-0.7-0.4-1.2-0.9-1.5-1.5c-0.3-0.7-0.5-1.5-0.5-2.5v-1.1c0-1,0.2-1.9,0.5-2.6c0.3-0.7,0.8-1.2,1.5-1.6
			s1.4-0.6,2.3-0.6c0.8,0,1.6,0.2,2.2,0.6c0.6,0.4,1.1,1,1.4,1.8s0.5,1.8,0.5,2.9v0.7h-6.8v-1.6h4.9c-0.1-0.8-0.3-1.5-0.6-1.9
			s-0.9-0.7-1.5-0.7c-0.8,0-1.3,0.2-1.8,0.7c-0.4,0.5-0.6,1.2-0.6,2.1v1.3c0,0.8,0.2,1.5,0.7,1.9s1.1,0.7,1.9,0.7
			c0.4,0,0.8-0.1,1.2-0.2c0.4-0.2,0.8-0.4,1.1-0.7l1.3,1.3c-0.5,0.5-1.1,0.9-1.7,1.1s-1.3,0.4-1.9,0.4
			C76.4,166.9,75.6,166.8,74.9,166.4z"/>
		<path d="M83,156.7h2.1l1.8,7.2l2.5-7.2h1.4l2.5,7.2l1.8-7.2h2.1l-3.1,10.1h-1.5l-2.5-7l-2.5,7h-1.5L83,156.7z"/>
		<path d="M114.6,159.1v2.5c0,1.1-0.2,2-0.6,2.8c-0.4,0.8-1,1.4-1.7,1.9s-1.6,0.7-2.6,0.7c-1,0-1.9-0.2-2.6-0.6
			c-0.8-0.4-1.3-1-1.8-1.8c-0.4-0.8-0.6-1.6-0.6-2.6v-4.2c0-1.1,0.2-2,0.6-2.8s1-1.4,1.7-1.9s1.6-0.7,2.6-0.7c0.8,0,1.6,0.2,2.3,0.5
			c0.7,0.3,1.3,0.8,1.7,1.5c0.5,0.6,0.8,1.4,0.9,2.2h-2.2c-0.1-0.5-0.3-0.9-0.6-1.2s-0.6-0.6-1-0.8c-0.4-0.2-0.8-0.3-1.2-0.3
			c-0.6,0-1.1,0.1-1.5,0.4c-0.4,0.3-0.8,0.7-1,1.2c-0.2,0.5-0.4,1.1-0.4,1.8v4.2c0,0.6,0.1,1.1,0.4,1.6s0.6,0.8,1,1.1s1,0.4,1.6,0.4
			c0.6,0,1.1-0.1,1.5-0.4s0.8-0.6,1-1.1c0.2-0.5,0.4-1.1,0.4-1.8V161h-2.9v-1.9H114.6z"/>
		<path d="M118.1,166.2c-0.6-0.5-0.9-1.3-0.9-2.4c0-1,0.3-1.8,0.8-2.3c0.6-0.5,1.4-0.8,2.6-0.8h2.9l0.1,1.6h-3
			c-0.5,0-0.9,0.1-1.2,0.3c-0.3,0.2-0.4,0.6-0.4,1.1c0,0.5,0.2,0.9,0.5,1.1c0.3,0.2,0.9,0.4,1.6,0.4c0.8,0,1.3-0.1,1.7-0.2
			c0.4-0.2,0.6-0.4,0.6-0.8l0.2,1.4c-0.2,0.3-0.4,0.5-0.6,0.7s-0.6,0.3-0.9,0.4s-0.7,0.1-1.1,0.1
			C119.6,166.9,118.7,166.7,118.1,166.2z M123.4,160.4c0-0.7-0.2-1.2-0.5-1.5c-0.4-0.4-0.9-0.6-1.5-0.6c-0.4,0-0.8,0.1-1.2,0.2
			c-0.4,0.1-0.7,0.3-1,0.5l-1.5-1c0.4-0.5,0.9-0.8,1.5-1.1c0.6-0.3,1.3-0.4,2.1-0.4c0.8,0,1.6,0.1,2.2,0.4c0.6,0.3,1.1,0.7,1.4,1.3
			c0.3,0.6,0.5,1.2,0.5,2v6.5h-1.9V160.4z"/>
		<path d="M128.3,156.7h2v10.1h-2V156.7z M134.3,160.6c0-0.7-0.2-1.3-0.5-1.7s-0.8-0.6-1.5-0.6c-0.7,0-1.2,0.2-1.5,0.5
			c-0.4,0.3-0.5,0.8-0.5,1.5l-0.2-2c0.3-0.6,0.7-1.1,1.2-1.4s1.1-0.5,1.7-0.5c0.7,0,1.3,0.2,1.8,0.5s0.9,0.8,1.1,1.4
			c0.3,0.6,0.4,1.4,0.4,2.2v6.2h-2V160.6z M140.4,160.6c0-0.7-0.2-1.3-0.6-1.7s-0.9-0.6-1.6-0.6c-0.6,0-1.1,0.2-1.4,0.6
			c-0.3,0.4-0.5,0.9-0.5,1.6l-0.4-2c0.3-0.7,0.7-1.2,1.3-1.6c0.5-0.4,1.1-0.6,1.7-0.6c0.7,0,1.4,0.2,1.9,0.5s0.9,0.8,1.2,1.4
			c0.3,0.6,0.4,1.4,0.4,2.2v6.2h-2V160.6z"/>
		<path d="M147.2,166.4c-0.7-0.4-1.2-0.9-1.5-1.5c-0.3-0.7-0.5-1.5-0.5-2.5v-1.1c0-1,0.2-1.9,0.5-2.6c0.3-0.7,0.8-1.2,1.5-1.6
			s1.4-0.6,2.3-0.6c0.8,0,1.6,0.2,2.2,0.6c0.6,0.4,1.1,1,1.4,1.8s0.5,1.8,0.5,2.9v0.7h-6.8v-1.6h4.9c-0.1-0.8-0.3-1.5-0.6-1.9
			s-0.9-0.7-1.5-0.7c-0.8,0-1.3,0.2-1.8,0.7c-0.4,0.5-0.6,1.2-0.6,2.1v1.3c0,0.8,0.2,1.5,0.7,1.9s1.1,0.7,1.9,0.7
			c0.4,0,0.8-0.1,1.2-0.2c0.4-0.2,0.8-0.4,1.1-0.7l1.3,1.3c-0.5,0.5-1.1,0.9-1.7,1.1s-1.3,0.4-1.9,0.4
			C148.6,166.9,147.8,166.8,147.2,166.4z"/>
	</g>
</g>
<g>
	<g>
		<path d="M71.4,192.8h1.2v8.7h-1.2V192.8z M72.1,197h2.8c0.3,0,0.5-0.1,0.7-0.2s0.4-0.3,0.5-0.5c0.1-0.2,0.2-0.5,0.2-0.8
			c0-0.3-0.1-0.6-0.2-0.8c-0.1-0.2-0.3-0.4-0.5-0.5s-0.4-0.2-0.7-0.2h-2.8v-1.2h2.7c0.5,0,1,0.1,1.4,0.3c0.4,0.2,0.7,0.5,0.9,0.9
			c0.2,0.4,0.3,0.9,0.3,1.4s-0.1,1-0.3,1.4c-0.2,0.4-0.5,0.7-0.9,0.9c-0.4,0.2-0.9,0.3-1.4,0.3h-2.7V197z"/>
		<path d="M80.2,199.9c0,0.2,0,0.3,0.1,0.4c0.1,0.1,0.2,0.1,0.3,0.1h0.6v1.2h-0.7c-0.5,0-0.8-0.1-1.1-0.4c-0.3-0.3-0.4-0.7-0.4-1.2
			v-7.1h1.2V199.9z"/>
		<path d="M82.8,201.1c-0.4-0.3-0.6-0.8-0.6-1.5c0-0.6,0.2-1.1,0.5-1.4c0.3-0.3,0.9-0.5,1.6-0.5h1.8l0.1,1h-1.8
			c-0.3,0-0.6,0.1-0.7,0.2c-0.2,0.1-0.2,0.4-0.2,0.7c0,0.3,0.1,0.6,0.3,0.7c0.2,0.2,0.5,0.2,1,0.2c0.5,0,0.8,0,1-0.2
			c0.2-0.1,0.3-0.3,0.3-0.5l0.1,0.9c-0.1,0.2-0.2,0.3-0.4,0.4c-0.2,0.1-0.3,0.2-0.5,0.2c-0.2,0.1-0.4,0.1-0.7,0.1
			C83.8,201.6,83.2,201.5,82.8,201.1z M86.1,197.6c0-0.4-0.1-0.7-0.3-1c-0.2-0.2-0.5-0.3-0.9-0.3c-0.2,0-0.5,0-0.7,0.1
			c-0.2,0.1-0.4,0.2-0.6,0.3l-0.9-0.6c0.2-0.3,0.5-0.5,0.9-0.7c0.4-0.2,0.8-0.2,1.3-0.2c0.5,0,1,0.1,1.3,0.3
			c0.4,0.2,0.6,0.4,0.8,0.8c0.2,0.3,0.3,0.8,0.3,1.3v4h-1.2V197.6z"/>
		<path d="M88.4,195.3h1.2l1.9,5.4l-0.7,1.3L88.4,195.3z M93.9,195.3l-2.7,7.7c-0.1,0.3-0.2,0.5-0.4,0.7c-0.2,0.2-0.3,0.3-0.6,0.4
			c-0.2,0.1-0.5,0.1-0.8,0.1h-0.2V203h0.2c0.2,0,0.4,0,0.5-0.1c0.1-0.1,0.3-0.2,0.4-0.5l2.3-7H93.9z"/>
		<path d="M98.6,201.1c-0.4-0.3-0.6-0.8-0.6-1.5c0-0.6,0.2-1.1,0.5-1.4c0.3-0.3,0.9-0.5,1.6-0.5h1.8l0.1,1h-1.8
			c-0.3,0-0.6,0.1-0.7,0.2c-0.2,0.1-0.2,0.4-0.2,0.7c0,0.3,0.1,0.6,0.3,0.7c0.2,0.2,0.5,0.2,1,0.2c0.5,0,0.8,0,1-0.2
			c0.2-0.1,0.3-0.3,0.3-0.5l0.1,0.9c-0.1,0.2-0.2,0.3-0.4,0.4c-0.2,0.1-0.3,0.2-0.5,0.2c-0.2,0.1-0.4,0.1-0.7,0.1
			C99.5,201.6,99,201.5,98.6,201.1z M101.8,197.6c0-0.4-0.1-0.7-0.3-1c-0.2-0.2-0.5-0.3-0.9-0.3c-0.2,0-0.5,0-0.7,0.1
			c-0.2,0.1-0.4,0.2-0.6,0.3l-0.9-0.6c0.2-0.3,0.5-0.5,0.9-0.7c0.4-0.2,0.8-0.2,1.3-0.2c0.5,0,1,0.1,1.3,0.3
			c0.4,0.2,0.6,0.4,0.8,0.8c0.2,0.3,0.3,0.8,0.3,1.3v4h-1.2V197.6z"/>
		<path d="M105.7,201.3c-0.3-0.2-0.6-0.5-0.7-0.9c-0.2-0.4-0.3-0.8-0.3-1.4v-1.4c0-0.5,0.1-1,0.2-1.4c0.2-0.4,0.4-0.7,0.7-0.9
			c0.3-0.2,0.7-0.3,1.1-0.3c0.4,0,0.7,0.1,1,0.3c0.3,0.2,0.6,0.5,0.7,0.8l-0.1,1.3c0-0.3,0-0.5-0.1-0.7c-0.1-0.2-0.2-0.3-0.4-0.4
			c-0.2-0.1-0.4-0.1-0.7-0.1c-0.4,0-0.7,0.1-0.9,0.4c-0.2,0.3-0.3,0.6-0.3,1.1v1.4c0,0.5,0.1,0.8,0.3,1c0.2,0.2,0.5,0.4,0.9,0.4
			c0.3,0,0.5-0.1,0.7-0.2c0.2-0.1,0.3-0.2,0.4-0.4c0.1-0.2,0.1-0.4,0.1-0.7l0.1,1.3c-0.1,0.3-0.3,0.6-0.6,0.8
			c-0.3,0.2-0.6,0.3-1,0.3C106.4,201.6,106,201.5,105.7,201.3z M105.7,203.8c-0.4-0.2-0.7-0.4-0.9-0.7l0.8-0.8
			c0.2,0.2,0.4,0.4,0.6,0.5c0.2,0.1,0.5,0.2,0.7,0.2c0.5,0,0.8-0.1,1.1-0.4c0.3-0.3,0.4-0.6,0.4-1.1v-6.2h1.2v6
			c0,0.6-0.1,1.1-0.3,1.5s-0.5,0.7-0.9,0.9c-0.4,0.2-0.9,0.3-1.4,0.3C106.5,204.1,106.1,204,105.7,203.8z"/>
		<path d="M111.8,201.1c-0.4-0.3-0.6-0.8-0.6-1.5c0-0.6,0.2-1.1,0.5-1.4c0.3-0.3,0.9-0.5,1.6-0.5h1.8l0.1,1h-1.8
			c-0.3,0-0.6,0.1-0.7,0.2c-0.2,0.1-0.2,0.4-0.2,0.7c0,0.3,0.1,0.6,0.3,0.7c0.2,0.2,0.5,0.2,1,0.2c0.5,0,0.8,0,1-0.2
			c0.2-0.1,0.3-0.3,0.3-0.5l0.1,0.9c-0.1,0.2-0.2,0.3-0.4,0.4c-0.2,0.1-0.3,0.2-0.5,0.2c-0.2,0.1-0.4,0.1-0.7,0.1
			C112.7,201.6,112.1,201.5,111.8,201.1z M115,197.6c0-0.4-0.1-0.7-0.3-1c-0.2-0.2-0.5-0.3-0.9-0.3c-0.2,0-0.5,0-0.7,0.1
			c-0.2,0.1-0.4,0.2-0.6,0.3l-0.9-0.6c0.2-0.3,0.5-0.5,0.9-0.7c0.4-0.2,0.8-0.2,1.3-0.2c0.5,0,1,0.1,1.3,0.3
			c0.4,0.2,0.6,0.4,0.8,0.8c0.2,0.3,0.3,0.8,0.3,1.3v4H115V197.6z"/>
		<path d="M118,192.8h1.2v1.2H118V192.8z M118,195.3h1.2v6.2H118V195.3z"/>
		<path d="M121.1,195.3h1.2v6.2h-1.2V195.3z M124.9,197.8c0-0.4-0.1-0.8-0.3-1c-0.2-0.2-0.5-0.4-1-0.4c-0.4,0-0.7,0.1-0.9,0.3
			s-0.3,0.5-0.3,0.9l-0.1-1.2c0.2-0.4,0.4-0.7,0.8-0.9c0.3-0.2,0.7-0.3,1-0.3c0.7,0,1.2,0.2,1.6,0.7s0.6,1.1,0.6,1.9v3.8h-1.2V197.8
			z"/>
		<path d="M129.1,201.5c-0.3-0.1-0.6-0.2-0.9-0.3c-0.3-0.1-0.5-0.3-0.8-0.5l0.7-0.9c0.3,0.3,0.7,0.4,1,0.6s0.7,0.2,1,0.2
			c0.5,0,0.8-0.1,1.1-0.2s0.4-0.4,0.4-0.7c0-0.2-0.1-0.4-0.2-0.5c-0.1-0.1-0.3-0.2-0.5-0.2s-0.5-0.1-0.8-0.1c0,0-0.1,0-0.1,0
			c0,0-0.1,0-0.1,0c0,0,0,0,0,0s0,0,0,0c-0.4,0-0.7-0.1-1-0.2s-0.5-0.2-0.7-0.5c-0.2-0.2-0.3-0.6-0.3-1c0-0.4,0.1-0.8,0.3-1.1
			c0.2-0.3,0.4-0.5,0.8-0.7c0.4-0.1,0.8-0.2,1.3-0.2c0.3,0,0.6,0,0.9,0.1c0.3,0.1,0.6,0.1,0.8,0.3c0.3,0.1,0.5,0.3,0.8,0.4l-0.7,0.9
			c-0.3-0.2-0.6-0.4-0.9-0.5s-0.6-0.2-0.9-0.2c-0.4,0-0.7,0.1-0.9,0.2c-0.2,0.1-0.3,0.4-0.3,0.6c0,0.2,0.1,0.3,0.2,0.4
			s0.3,0.1,0.4,0.2c0.2,0,0.4,0.1,0.8,0.1c0,0,0,0,0.1,0s0.1,0,0.1,0c0,0,0,0,0,0s0,0,0,0c0.4,0,0.8,0.1,1.1,0.2
			c0.3,0.1,0.6,0.3,0.8,0.5c0.2,0.3,0.3,0.6,0.3,1.1c0,0.4-0.1,0.8-0.3,1.1s-0.5,0.5-0.9,0.7c-0.4,0.1-0.9,0.2-1.5,0.2
			C129.8,201.6,129.5,201.6,129.1,201.5z"/>
		<path d="M133.9,195.3h2.8v1.1h-2.8V195.3z M134.9,201.1c-0.2-0.3-0.4-0.7-0.4-1.2v-6.4h1.2v6.4c0,0.2,0,0.3,0.1,0.4
			c0.1,0.1,0.1,0.1,0.3,0.1h0.6v1.2H136C135.5,201.6,135.1,201.4,134.9,201.1z"/>
		<path d="M138.1,200.2h1.3v1.3h-1.3V200.2z"/>
		<path d="M140.9,200.2h1.3v1.3h-1.3V200.2z"/>
		<path d="M143.7,200.2h1.3v1.3h-1.3V200.2z"/>
	</g>
</g>
<g>
	<g>
		<path d="M66.6,231.6h1l3.2,8.7h-1.3l-2.4-7l-2.4,7h-1.3L66.6,231.6z M64.8,237.2h4.6v1.2h-4.6V237.2z"/>
		<path d="M73.4,240.3h-1.2v-8.7h1.2V240.3z"/>
	</g>
</g>
<g>
	<g>
		<path d="M126.8,231.6h1.2v8.7h-1.2V231.6z M127.5,235.4h4.8v1.2h-4.8V235.4z M131.7,231.6h1.2v8.7h-1.2V231.6z"/>
		<path d="M136.2,237.9c0,0.4,0.1,0.8,0.3,1c0.2,0.2,0.5,0.4,0.9,0.4c0.4,0,0.7-0.1,0.9-0.3c0.2-0.2,0.3-0.5,0.3-0.9l0.1,1.3
			c-0.1,0.3-0.3,0.6-0.6,0.8s-0.6,0.3-1.1,0.3c-0.7,0-1.2-0.2-1.6-0.7s-0.6-1.1-0.6-1.9v-3.8h1.2V237.9z M138.8,234.1h1.2v6.2h-1.2
			V234.1z"/>
		<path d="M141.8,234.1h1.2v6.2h-1.2V234.1z M145.6,236.5c0-0.4-0.1-0.8-0.3-1c-0.2-0.2-0.5-0.4-0.9-0.4c-0.4,0-0.7,0.1-0.9,0.3
			s-0.3,0.5-0.3,0.9l-0.1-1.2c0.2-0.4,0.4-0.7,0.8-0.9c0.3-0.2,0.7-0.3,1-0.3c0.4,0,0.8,0.1,1.1,0.3c0.3,0.2,0.5,0.5,0.7,0.9
			s0.2,0.8,0.2,1.4v3.8h-1.2V236.5z M149.3,236.5c0-0.4-0.1-0.8-0.3-1c-0.2-0.2-0.5-0.4-1-0.4c-0.4,0-0.7,0.1-0.9,0.3
			c-0.2,0.2-0.3,0.6-0.3,1l-0.2-1.2c0.2-0.4,0.5-0.7,0.8-1s0.7-0.3,1.1-0.3c0.4,0,0.8,0.1,1.1,0.3s0.6,0.5,0.7,0.9s0.2,0.8,0.2,1.4
			v3.8h-1.2V236.5z"/>
		<path d="M152.6,239.9c-0.4-0.3-0.6-0.8-0.6-1.5c0-0.6,0.2-1.1,0.5-1.4c0.3-0.3,0.9-0.5,1.6-0.5h1.8l0.1,1h-1.8
			c-0.3,0-0.6,0.1-0.7,0.2c-0.2,0.1-0.2,0.4-0.2,0.7c0,0.3,0.1,0.6,0.3,0.7c0.2,0.2,0.5,0.2,1,0.2c0.5,0,0.8,0,1-0.2
			c0.2-0.1,0.3-0.3,0.3-0.5l0.1,0.9c-0.1,0.2-0.2,0.3-0.4,0.4c-0.2,0.1-0.3,0.2-0.5,0.2c-0.2,0.1-0.4,0.1-0.7,0.1
			C153.6,240.4,153,240.2,152.6,239.9z M155.9,236.4c0-0.4-0.1-0.7-0.3-1c-0.2-0.2-0.5-0.3-0.9-0.3c-0.2,0-0.5,0-0.7,0.1
			c-0.2,0.1-0.4,0.2-0.6,0.3l-0.9-0.6c0.2-0.3,0.5-0.5,0.9-0.7c0.4-0.2,0.8-0.2,1.3-0.2c0.5,0,1,0.1,1.3,0.3
			c0.4,0.2,0.6,0.4,0.8,0.8c0.2,0.3,0.3,0.8,0.3,1.3v4h-1.2V236.4z"/>
		<path d="M158.9,234.1h1.2v6.2h-1.2V234.1z M162.7,236.5c0-0.4-0.1-0.8-0.3-1c-0.2-0.2-0.5-0.4-1-0.4c-0.4,0-0.7,0.1-0.9,0.3
			s-0.3,0.5-0.3,0.9l-0.1-1.2c0.2-0.4,0.4-0.7,0.8-0.9c0.3-0.2,0.7-0.3,1-0.3c0.7,0,1.2,0.2,1.6,0.7s0.6,1.1,0.6,1.9v3.8h-1.2V236.5
			z"/>
	</g>
</g>
</svg>
