<?xml version="1.0" encoding="utf-8"?>
<!-- Generator: Adobe Illustrator 26.0.0, SVG Export Plug-In . SVG Version: 6.00 Build 0)  -->
<svg version="1.1" id="Ebene_1" xmlns="http://www.w3.org/2000/svg" xmlns:xlink="http://www.w3.org/1999/xlink" x="0px" y="0px"
	 width="211px" height="274.8px" viewBox="0 0 211 274.8" style="enable-background:new 0 0 211 274.8;" xml:space="preserve">
<style type="text/css">
	.st0{fill:#12191F;}
	.st1{fill:none;stroke:#C6C6C6;stroke-width:3;stroke-miterlimit:10;}
	.st2{fill:#C6C6C6;}
	.st3{fill:#C6C6C6;stroke:#C6C6C6;stroke-width:3;stroke-miterlimit:10;}
</style>
<image style="display:none;overflow:visible;" width="1279" height="420" xlink:href="9C7044BE.jpg"  transform="matrix(0.6542 0 0 0.6542 -613.8129 0)">
</image>
<rect x="-60.6" y="-25.9" class="st0" width="319.1" height="343.4"/>
<g>
	<path class="st1" d="M16.7,255.5c0,2.3,1.9,4.3,4.3,4.3h168.9c2.3,0,4.3-1.9,4.3-4.3V21.4c0-2.3-1.9-4.3-4.3-4.3H21
		c-2.3,0-4.3,1.9-4.3,4.3V255.5z"/>
</g>
<g>
	<path class="st2" d="M39.9,247.2c0,1.6,1.3,2.8,2.8,2.8h50.6c1.6,0,2.8-1.3,2.8-2.8v-21.5c0-1.6-1.3-2.8-2.8-2.8H42.7
		c-1.6,0-2.8,1.3-2.8,2.8V247.2z"/>
	<path class="st1" d="M39.9,247.2c0,1.6,1.3,2.8,2.8,2.8h50.6c1.6,0,2.8-1.3,2.8-2.8v-21.5c0-1.6-1.3-2.8-2.8-2.8H42.7
		c-1.6,0-2.8,1.3-2.8,2.8V247.2z"/>
</g>
<g>
	<path class="st2" d="M116.4,247.4c0,1.6,1.3,2.8,2.8,2.8h50.6c1.6,0,2.8-1.3,2.8-2.8v-21.5c0-1.6-1.3-2.8-2.8-2.8h-50.6
		c-1.6,0-2.8,1.3-2.8,2.8V247.4z"/>
	<path class="st1" d="M116.4,247.4c0,1.6,1.3,2.8,2.8,2.8h50.6c1.6,0,2.8-1.3,2.8-2.8v-21.5c0-1.6-1.3-2.8-2.8-2.8h-50.6
		c-1.6,0-2.8,1.3-2.8,2.8V247.4z"/>
</g>
<line class="st3" x1="16.7" y1="133.4" x2="193.2" y2="133.4"/>
</svg>
