<?xml version="1.0" encoding="utf-8"?>
<!-- Generator: Adobe Illustrator 26.0.0, SVG Export Plug-In . SVG Version: 6.00 Build 0)  -->
<svg version="1.1" id="Ebene_1" xmlns="http://www.w3.org/2000/svg" xmlns:xlink="http://www.w3.org/1999/xlink" x="0px" y="0px"
	 width="253.4px" height="245.2px" viewBox="0 0 253.4 245.2" style="enable-background:new 0 0 253.4 245.2;" xml:space="preserve"
	>
<style type="text/css">
	.st0{display:none;}
	.st1{display:inline;}
	.st2{display:inline;fill:#202228;}
	.st3{fill:#202228;}
</style>
<g id="Ebene_1_00000070105921650981284520000006538351420586471824_">
	<g id="Card" class="st0">
		<path class="st1" d="M94.1-203.4c2.5-8.9,3.7-13.7,5.4-15.1c1.9-1.6,3.1-2.7,8-1.3s62.1,19.9,64,20.8c2,1,7.4,2.2,5,10.6
			S145.6-96,143-89.3s-7.3,6.6-14.2,1.3c-7-5.3-2.2-8.8,2.2-6.9s6.3,3.4,7.8-3.6c1.4-7,26.7-78.9,28.1-87c1.4-8.2,1.6-6.6-6.9-9.8
			c-8.4-3.2-45.3-13.7-48.9-14.9s-6.4-2.4-8.4,3.8c-1.9,5.9-1.8,7.9-4.4,16.9c-2.3,8-9.7,8.7-7.3-0.5
			C93.2-199.3,92.1-195.4,94.1-203.4z"/>
		<path class="st1" d="M108.2-201c-3.8,5.9,0.7,11.2,5.7,4.7C118.9-202.7,112.3-206.8,108.2-201z"/>
		<path class="st1" d="M127.4-109.3c-3.8,5.9,0.7,11.2,5.7,4.7C138.2-111,131.6-115,127.4-109.3z"/>
		<path class="st1" d="M129.3-168.7c-4.7,1.1-4.7-0.1-7.4-3.6c-8.3-10.4-19.2,2.5-16.1,18.4c0.9,4.6,3.8,11.8,5.9,16
			c2.1,4.1,4.5,3.9,8.7,2.1c5.6-2.4,11.2-5,16.2-11.2C151.5-165.4,134.9-170.1,129.3-168.7z M129.5-148.3
			c-12.9,11.7-14.9,2.6-17.5-5c-5.2-15.3,5.9-19.8,8.3-10.7c1.7,6.4,3.5,4.5,7.6,2C134.2-165.8,143.2-160.8,129.5-148.3z"/>
	</g>
	<g id="dice" class="st0">
		<path class="st1" d="M120.4-81.8c-0.5-25,1-22.8-22.8-22.8c-23.4,0.1-22.5-1.5-22.5,21.9c0,25.8-1.5,23.9,23.9,23.4
			C123-59.6,120.8-58.1,120.4-81.8z M97.9-66.4c-18.4,0-15.6,1-15.5-16.1s-2.2-14.4,15-14.5c18.3-0.1,15.3-2.2,15.5,15
			C113.2-64.7,115.7-66.4,97.9-66.4z"/>
		<ellipse class="st1" cx="92.8" cy="-87.7" rx="5.1" ry="3.5"/>
		<ellipse class="st1" cx="104" cy="-87.7" rx="3.8" ry="3.5"/>
		<ellipse class="st1" cx="92.6" cy="-75.6" rx="4.5" ry="3.8"/>
		<ellipse class="st1" cx="104" cy="-76" rx="3.6" ry="4.6"/>
	</g>
	<g id="chess" class="st0">
		<path class="st1" d="M92.1-115.7c-0.4,8.9,7.4,11.9,8.5,0c1.2-11.9-0.6-36.7-3.1-44.4c-6.5-19.9-13.4-27-39.4-35.5
			c-7.6-2.5-13.1,2.3-4.9,6.7c-13.5,7.3-28.9,20-30,37c-0.9,13.4-1,15,8.2,15.2c10.2,0.2,12.3,1.2,15.9-6.7
			c2.9-6.3,12.9-4.8,13.6,3.3c0.6,8.2,0.8,7.8-11,12.5s-23.3,8.8-22.4,33.4c-14.6,1.5-11.2,12.8-9.6,15.9c-10,2.7-5,17.7,4.7,17.7
			c10,0.1,37.5-0.2,42.1-0.9c3.6-0.5,7-6.5-3-6.1C48.5-67,32.8-67,26-67s-10.5-6.7-1.9-7s29.1-0.3,35.6,0s10.1-7.4-1.8-7.4
			S30.6-81.2,27.1-81s-5.6-6,4.8-5.7s26.7,0,32.9,0s7.6-7.3-3.6-7.4c-11.3-0.1-19.6-0.5-27.1-0.3c-0.1-9.8-0.8-19.9,15.4-26
			s20.8-9.2,18.4-19.7c-2.5-10.6-8.8-15.4-15.5-15.3s-7.6,2.4-10,6.2s0.1,6.9-7.9,7.1s-6.5-5.1-4.1-5.1s4.8-4.9,1.2-5.3
			c-3.6-0.3-3.3-2.8-0.6-8.5c2.5-5.4,6.3-13.7,22.5-20.8c5.2-2.3,4.5-4.3,5.2-6.7C91.5-180.5,94.1-156.4,92.1-115.7z"/>
		<path class="st1" d="M57.9-168.4c-3.4,4.6,2.6,8.2,5.7,4.7C67-167.4,61.5-172.8,57.9-168.4z"/>
	</g>
</g>
<g id="new_logo">
	<g id="tik_tak_toe" class="st0">
		<path class="st1" d="M-41.9,185.8c2.5,4.4,8,13.4,14.7,24.1c-9.4,6.6-16.6,11.9-19.4,14.3c-10.4,9-2.7,11.1,11.2,3.2
			c2.9-1.7,7.8-4.6,14-8.4c5.4,8.6,11.3,17.8,16.8,26.3c-11,7.6-19.7,13.9-22.8,16.6c-10.4,9-2.7,11.1,11.2,3.2
			c3.5-2,9.8-5.8,17.6-10.7c6.8,10.2,12.6,18.5,15.7,22.3c5.9,5.8,9.3,4.7,6.9-3.4c-1.5-4.9-6.4-14.1-12.9-24.9
			c7.2-4.5,15.1-9.5,22.8-14.5c7.8,11.8,14.5,21.6,18,25.7c5.9,5.8,9.3,4.7,6.9-3.4c-1.7-5.5-7.6-16.2-15.2-28.7
			c14-9.2,26.2-17.4,30.9-21.4c5.8-5.9,4.7-9.3-3.4-6.9c-6.2,1.9-19.2,9.2-33.8,18.3c-5.3-8.4-11.1-17.2-16.6-25.3
			c15.5-10.1,29.4-19.4,34.6-23.8c5.8-5.9,4.7-9.3-3.4-6.9c-6.8,2-21.6,10.6-37.9,20.9c-8.2-12-15.1-21.5-18-24.8
			c-9-10.4-11.1-2.7-3.2,11.2c2.2,3.8,6.5,10.9,11.9,19.6c-7.8,5-15.6,10.2-22.7,15.1c-9.4-13.8-17.6-25.1-20.8-28.9
			C-47.8,164.2-49.9,171.9-41.9,185.8z M11.1,198.4c5.1,8.2,10.8,17,16.2,25.4c-7.5,4.8-15.1,9.9-22.3,14.7
			c-5.2-8.4-11-17.3-16.7-25.7C-4.6,208.4,3.3,203.4,11.1,198.4z"/>
	</g>
	<g id="conn4">
		<g id="_x31_" class="st0">
			<ellipse class="st1" cx="-80" cy="135.3" rx="18.1" ry="18.9"/>
			<ellipse class="st1" cx="-34.7" cy="134.5" rx="18.9" ry="17"/>
			<ellipse class="st1" cx="10.5" cy="134.6" rx="18.7" ry="17.6"/>
			<ellipse class="st1" cx="54.5" cy="133.9" rx="16.8" ry="17.4"/>
		</g>
		<g id="_x32_" class="st0">
			<ellipse class="st1" cx="62.9" cy="-107.2" rx="18.9" ry="18.1"/>
			<ellipse class="st1" cx="63.7" cy="-61.9" rx="17" ry="18.9"/>
			<ellipse class="st1" cx="63.6" cy="-16.7" rx="17.6" ry="18.7"/>
			<ellipse class="st1" cx="64.3" cy="27.3" rx="17.4" ry="16.8"/>
		</g>
		<g id="_x33_">
		</g>
	</g>
	<g class="st0">
		<ellipse class="st1" cx="168.4" cy="-78.1" rx="31.9" ry="18.8"/>
		<path class="st1" d="M200.1-57.2l0.1-10.5c-10.3,17.4-52.8,18-63,0v11.2C152.6-39.1,187.3-39.8,200.1-57.2z"/>
		<path class="st1" d="M200.2-43.1l0.1-10.5c-10.3,17.4-52.8,18-63,0v11.2C152.7-25,187.4-25.7,200.2-43.1z"/>
		<path class="st1" d="M200.5-29.1l0.1-10.5c-10.3,17.4-52.8,18-63,0v11.2C153-10.9,187.7-11.6,200.5-29.1z"/>
		<path class="st1" d="M200.7-14.9l0.1-10.5c-10.3,17.4-52.8,18-63,0v11.2C153.2,3.2,187.9,2.5,200.7-14.9z"/>
		<path class="st1" d="M200.8-0.8l0.1-10.5c-10.3,17.4-52.8,18-63,0v11.2C153.3,17.3,188,16.6,200.8-0.8z"/>
		<path class="st1" d="M138.2,2.8V14c15.3,17.4,50,16.7,62.9-0.7l0.1-10.5C190.9,20.2,148.4,20.8,138.2,2.8z"/>
	</g>
	<g id="coin_stack">
	</g>
</g>
<g id="Tik_Tak_Toe">
	<g id="_x33__00000067218977296012615490000000556633535181807504_" class="st0">
		<path class="st2" d="M-120.3-92.4c16.2,5.8,86.2,42.9,101.3,51.7c14.5,8.4,16.7,16.6,3,11.8s-94.9-43.8-108.8-56.8
			C-131.2-91.7-128.7-94.5-120.3-92.4z"/>
		<path class="st2" d="M-134.7-51.6c16.2,5.8,86.2,42.9,101.3,51.7c14.5,8.4,16.7,16.6,3,11.8s-94.9-43.8-108.8-56.8
			C-145.6-51-143.1-53.8-134.7-51.6z"/>
		<path class="st2" d="M-126.5,4.6c5.8-16.2,42.9-86.2,51.7-101.3c8.4-14.5,16.6-16.7,11.8-3S-106.8-4.8-119.9,9.1
			C-125.9,15.5-128.7,13-126.5,4.6z"/>
		<path class="st2" d="M-89.3,28.8c5.8-16.2,42.9-86.2,51.7-101.3c8.4-14.5,16.6-16.7,11.8-3S-69.6,19.4-82.6,33.3
			C-88.7,39.8-91.5,37.2-89.3,28.8z"/>
	</g>
	<g id="_x32__00000057109778768450183960000014341265725241936274_" class="st0">
		<path class="st2" d="M87.1,145.8C93,129.6,130,59.6,138.8,44.5c8.4-14.5,16.6-16.7,11.8-3s-43.8,94.9-56.8,108.8
			C87.8,156.7,85,154.2,87.1,145.8z"/>
		<path class="st2" d="M157.4,76.2c-15.1-8.8-85.1-45.8-101.3-51.7c-8.4-2.2-10.9,0.6-4.5,6.7c10.9,10.2,63.2,36.4,91.8,49.6
			c4.4-1.5,9.8-2.8,15.2-3.8C158.3,76.7,157.9,76.5,157.4,76.2z"/>
		<path class="st2" d="M125.1,107.1C98.5,92.8,54.2,69.8,41.8,65.3c-8.4-2.2-10.9,0.6-4.5,6.7c10.4,9.8,58.5,34.1,87.8,47.7
			C125.1,115.2,125.1,110.7,125.1,107.1z"/>
		<path class="st2" d="M113.4,17.3c4.8-13.7-3.4-11.6-11.8,3c-6.7,11.6-30.1,55.4-43.2,82.6c2.7,3.1,4.9,7,6.7,11.1
			C81.8,86.7,109.4,28.6,113.4,17.3z"/>
	</g>
	<g id="_x31__00000015331407285361130190000008463265799848974984_" class="st0">
		<path class="st2" d="M167.3-43c17.1-1.6,96.2,2.4,113.6,4c16.7,1.5,22.1,8,7.7,9.5S184.1-29.1,166-35
			C157.6-37.8,158.8-41.4,167.3-43z"/>
		<path class="st2" d="M171.5,0.1c17.1-1.6,96.2,2.4,113.6,4c16.7,1.5,22.1,8,7.7,9.5C278.4,15,188.3,14,170.2,8
			C161.8,5.3,162.9,1.7,171.5,0.1z"/>
		<path class="st2" d="M202.6,47.6c-1.6-17.1,2.4-96.2,4-113.6c1.5-16.7,8-22.1,9.5-7.7s0.4,104.5-5.5,122.6
			C207.8,57.2,204.2,56.1,202.6,47.6z"/>
		<path class="st2" d="M246.6,53.8c-1.6-17.1,2.4-96.2,4-113.6c1.5-16.7,8-22.1,9.5-7.7s0.4,104.5-5.5,122.6
			C251.8,63.4,248.2,62.3,246.6,53.8z"/>
	</g>
	<g id="_x32_.2">
		<path class="st3" d="M57.7,120c0,8.5-7.2,15.3-16,15.3s-16-6.9-16-15.3s7.2-15.3,16-15.3S57.7,111.5,57.7,120z M64.9,137.8
			c-8.3,0-15,7.5-15,16.7s6.7,16.7,15,16.7s15-7.5,15-16.7C79.9,145.2,73.2,137.8,64.9,137.8z M88.2,172.7
			c-8.6,0-15.6,7.4-15.6,16.6c0,9.2,7,16.6,15.6,16.6s15.6-7.4,15.6-16.6C103.8,180.2,96.8,172.7,88.2,172.7z M111.5,202.5
			c-8.6,0-15.7,6.8-15.7,15.1s7,15.1,15.7,15.1s15.7-6.8,15.7-15.1S120.2,202.5,111.5,202.5z M176.2,119.4
			c49.6-1.5,43-35.3-2.3-33.9C120.9,86.5,129.2,120.8,176.2,119.4z M144.7,126.9c14.8,9.2,37,9.7,53.6,1c17.2-9,16.4-17.7,3.5-9.5
			c-12.2,7.8-45.8,9.3-58.4,0C133.6,110.9,133,119.7,144.7,126.9z M144,139.6c14.8,9.2,37,9.7,53.6,1c17.2-9,16.4-17.7,3.5-9.5
			c-12.2,7.8-45.8,9.3-58.4,0C132.9,123.6,132.2,132.3,144,139.6z M143.3,153.6c14.8,9.2,37,9.7,53.6,1c17.2-9,16.4-17.7,3.5-9.5
			c-12.2,7.8-45.8,9.3-58.4,0C132.3,137.5,131.6,146.3,143.3,153.6z M142.8,167.3c14.8,9.2,37,9.7,53.6,1c17.2-9,16.4-17.7,3.5-9.5
			c-12.2,7.8-45.8,9.3-58.4,0C131.7,151.3,131.1,160,142.8,167.3z M142.8,182.1c14.8,9.2,37,9.7,53.6,1c17.2-9,16.4-17.7,3.5-9.5
			c-12.2,7.8-45.8,9.3-58.4,0C131.7,166,131,174.8,142.8,182.1z M142,195.3c14.8,9.2,37,9.7,53.6,1c17.2-9,16.4-17.7,3.5-9.5
			c-12.2,7.8-45.8,9.3-58.4,0C130.9,179.2,130.3,188,142,195.3z M141.9,210.6c14.8,9.2,37,9.7,53.6,1c17.2-9,16.4-17.7,3.5-9.5
			c-12.2,7.8-45.8,9.3-58.4,0C130.8,194.5,130.2,203.3,141.9,210.6z M142.4,224c14.8,9.2,37,9.7,53.6,1c17.2-9,16.4-17.7,3.5-9.5
			c-12.2,7.8-45.8,9.3-58.4,0C131.3,208,130.7,216.7,142.4,224z M98.7,139.9c13-13.9,46.9-84.7,51.7-98.4c4.8-13.7-3.4-11.6-11.8,3
			c-8.8,15.1-40.4,76.2-46.2,92.3C90.1,145.3,92.6,146.3,98.7,139.9z M145,80.3c1-0.2,3.1-0.6,4.1-2.8c1.1-2.3,0.8-4.8-5.2-8.5
			C118.1,55,69,29.4,55.8,24.6c-8.4-2.2-10.9,0.6-4.5,6.7C61.8,41.1,110,65.4,139.2,79C141.7,80.1,143.6,80.4,145,80.3z
			 M119.7,104.5L119.7,104.5C92.9,90.1,53.1,69.6,41.5,65.4c-8.4-2.2-10.9,0.6-4.5,6.7c9.3,8.7,48.5,29,77.7,42.9l0.1-0.1
			C124.3,119.6,126.9,108.2,119.7,104.5z M101.3,20.3C95.1,31,75,68.7,61.5,95.8c-5.3,10.9,3.7,17.6,10.1,6.4l0,0
			c16.5-29.5,38-74.9,41.4-84.9C117.9,3.6,109.7,5.8,101.3,20.3z"/>
	</g>
</g>
<g id="Coin_Stack" class="st0">
	<ellipse class="st1" cx="117.5" cy="-194.3" rx="44.7" ry="26.4"/>
	<path class="st1" d="M74-179.6c14.2,25.2,73.8,24.4,88.2,0L162-165c-18,24.4-66.6,25.4-88,1V-179.6z"/>
	<path class="st1" d="M74.1-159.9c14.2,25.2,73.8,24.4,88.2,0l-0.2,14.6c-18,24.4-66.6,25.4-88,1C74.1-144.3,74.1-159.9,74.1-159.9z
		"/>
	<path class="st1" d="M74.5-140.2c14.2,25.2,73.8,24.4,88.2,0l-0.2,14.6c-18,24.4-66.6,25.4-88,1V-140.2z"/>
	<path class="st1" d="M74.8-120.4c14.2,25.2,73.8,24.4,88.2,0l-0.2,14.6c-18,24.4-66.6,25.4-88,1V-120.4z"/>
	<path class="st1" d="M74.9-100.6c14.2,25.2,73.8,24.4,88.2,0L163-86c-18,24.4-66.6,25.4-88,1C74.9-85,74.9-100.6,74.9-100.6z"/>
	<path class="st1" d="M75.3-80.9c14.2,25.2,73.8,24.4,88.2,0l-0.2,14.6c-18,24.4-66.6,25.4-88,1V-80.9z"/>
</g>
</svg>
